<svg xmlns="http://www.w3.org/2000/svg" viewBox="0 0 293.26 500"><defs><style>.cls-1{opacity:0.4;isolation:isolate;}.cls-10,.cls-2{fill:#d6d8e5;}.cls-3{fill:#e9eaf4;}.cls-4{fill:#d5d7e2;}.cls-5{fill:#f4f6f9;}.cls-6{fill:#e26d6d;}.cls-7{opacity:0.8;}.cls-8{fill:#3a4151;}.cls-9{fill:#97a6ff;}.cls-10{opacity:0.4;}.cls-11{fill:#ffcea9;}.cls-12{fill:#ededed;}.cls-13{fill:#38226d;}.cls-14{fill:#9c73ff;}.cls-15{fill:#8c50ff;}.cls-16{fill:#f4f4f4;}.cls-17{fill:#3a2c6d;}.cls-18{fill:#2b2a30;}.cls-19{fill:#bf4b4b;}</style></defs><title>Calendar_SVG</title><g id="Слой_2" data-name="Слой 2"><g id="Слой_1-2" data-name="Слой 1"><g class="cls-1"><path class="cls-2" d="M263.62,313.07h0a10.4,10.4,0,0,1-5.21,9L36.1,450.46a10.38,10.38,0,0,1-10.33,0h0a10.4,10.4,0,0,1-.08-18.06L248,304.09A10.41,10.41,0,0,1,263.62,313.07Z"/></g><path class="cls-3" d="M278.21,9c.22-.06.43-.13.65-.18l.6-.13.78-.12.44,0c.32,0,.63,0,.93,0h.22a7.73,7.73,0,0,1,1.09.14l.25.06a6.89,6.89,0,0,1,.81.23l.25.09a8.39,8.39,0,0,1,1,.45h0L270.62,1l-.08,0a5.6,5.6,0,0,0-.74-.36l-.15,0-.24-.09c-.13,0-.25-.1-.38-.13l-.43-.1-.26-.06a.58.58,0,0,0-.14,0,8.46,8.46,0,0,0-.88-.11H267c-.23,0-.46,0-.69,0l-.25,0-.44,0-.41,0-.36.08-.6.13L264,.39l-.33.11-1,.36c-.12.05-.24.07-.37.13l-.21.1a17.53,17.53,0,0,0-1.84.92L14.62,143.78l14.57,8.47L274.75,10.48a17.65,17.65,0,0,1,1.85-.92l.57-.23Z"/><path class="cls-4" d="M15.11,365.59l-.54-188a22.65,22.65,0,0,1,.17-2.58c0-.21,0-.41.08-.62,0-.39.12-.78.2-1.17s.1-.54.16-.81.12-.49.18-.74.18-.7.28-1l.18-.6c.13-.4.26-.79.4-1.18.05-.16.11-.32.17-.48.2-.54.42-1.08.65-1.61a1.42,1.42,0,0,1,.08-.18c.21-.48.44-1,.67-1.43.07-.14.15-.29.22-.44q.34-.66.72-1.32l.14-.25c.29-.51.6-1,.92-1.5l.29-.42c.23-.36.48-.71.72-1l.41-.55.66-.85.57-.69c.18-.22.37-.43.56-.64s.64-.7,1-1l.48-.49a27,27,0,0,1,2.07-1.82l.38-.28a20.83,20.83,0,0,1,2.28-1.55l-14.57-8.47a22,22,0,0,0-2.29,1.55l-.38.28c-.7.56-1.39,1.17-2.06,1.82l-.18.15c-.1.11-.2.23-.31.34-.33.33-.66.68-1,1-.11.12-.22.22-.32.34l-.24.3c-.2.22-.38.46-.57.69s-.26.3-.38.46-.19.26-.29.39-.27.36-.4.55l-.28.38c-.16.22-.3.44-.45.67l-.28.42-.12.18c-.26.4-.51.82-.76,1.24l0,.08-.14.25c-.17.3-.34.6-.5.9l-.21.42-.22.44c-.07.13-.14.26-.2.39-.16.34-.32.69-.47,1l-.09.18,0,0c-.19.43-.37.87-.54,1.31,0,.08,0,.17-.08.25s-.12.32-.18.48-.16.44-.23.66-.11.34-.16.52-.13.4-.19.6-.08.25-.11.37-.11.45-.17.68l-.18.75-.06.25c0,.18-.06.36-.1.54-.07.4-.14.79-.2,1.18,0,.1,0,.21,0,.32s0,.2,0,.3A22.65,22.65,0,0,0,0,169.11l.53,188c0,4.63,1.65,7.88,4.28,9.41L19.38,375C16.75,373.47,15.12,370.22,15.11,365.59Z"/><path class="cls-5" d="M274.75,10.48c8.11-4.68,14.69-.93,14.72,8.39l.53,188c0,9.31-6.51,20.64-14.62,25.32L29.82,374c-8.1,4.68-14.69.93-14.71-8.38l-.54-188c0-9.32,6.52-20.65,14.62-25.33Z"/><path class="cls-6" d="M267.56,82.45v1.7a27.77,27.77,0,0,0-1.81,5.39,25.56,25.56,0,0,0-.91,6l1.52-.88v2.2l-5.77,3.33V98l1.51-.87a25.07,25.07,0,0,1,1-5.38,38.79,38.79,0,0,1,2-5.75L262,87.8v1.93l-1.91,1.1V86.75Z"/><polygon class="cls-6" points="259.9 117.94 259.93 129.47 261.49 128.58 261.49 130.78 255.64 134.15 255.64 131.95 257.29 131 257.26 121.67 255.52 122.68 255.51 120.48 259.9 117.94"/><path class="cls-6" d="M272.36,120.72l-1.16.67v1.76l1-.58v2l-4.79,2.76v-2l1.33-.77v-1.76l-4.4,2.54a6.85,6.85,0,0,0-.63-1.39l5.11-11.4,2.36-1.37,0,8.32,1.17-.67Zm-3.63.21,0-4.79-3,6.51,3-1.72"/><path class="cls-6" d="M259.65,149.31c1.14-.65,2-.81,2.69-.45a2.17,2.17,0,0,1,1,2.13,5.8,5.8,0,0,1-.28,1.78,8.13,8.13,0,0,1-.75,1.66c-.31.51-.83,1.3-1.6,2.37a20.86,20.86,0,0,0-2.14,3.48A7.23,7.23,0,0,0,258,162l3.48-2v-1.78l1.91-1.11-.08,4.05-7.67,4.43a13.87,13.87,0,0,1,.26-3,11.31,11.31,0,0,1,.82-2.39,26.66,26.66,0,0,1,1.62-3c.91-1.5,1.5-2.54,1.79-3.16a4.18,4.18,0,0,0,.43-1.78.94.94,0,0,0-.33-.84.72.72,0,0,0-.82.06,2.4,2.4,0,0,0-1.06,1.28,7.42,7.42,0,0,0-.37,2.43l-2.19,1.15a8.93,8.93,0,0,1,.5-3.29,7,7,0,0,1,1.4-2.28A8.07,8.07,0,0,1,259.65,149.31Z"/><polygon class="cls-6" points="270.8 143.12 270.83 154.65 272.4 153.74 272.41 155.96 266.56 159.34 266.55 157.12 268.2 156.17 268.18 146.84 266.42 147.85 266.42 145.65 270.8 143.12"/><path class="cls-6" d="M259.14,181.1c1.13-.66,2-.81,2.68-.47a2.19,2.19,0,0,1,1,2.15,5.63,5.63,0,0,1-.28,1.77,8.74,8.74,0,0,1-.75,1.67c-.3.51-.83,1.28-1.59,2.36a20.87,20.87,0,0,0-2.15,3.47,7.28,7.28,0,0,0-.51,1.77l3.48-2V190l1.91-1.11-.08,4.05-7.65,4.42a13.42,13.42,0,0,1,.24-2.94,12.57,12.57,0,0,1,.82-2.39,30.6,30.6,0,0,1,1.62-3,36.26,36.26,0,0,0,1.79-3.16,4,4,0,0,0,.43-1.77,1,1,0,0,0-.33-.86.74.74,0,0,0-.82.07,2.4,2.4,0,0,0-1,1.28,7.4,7.4,0,0,0-.39,2.43l-2.19,1.15a8.9,8.9,0,0,1,.5-3.29,7.47,7.47,0,0,1,1.4-2.27A8.07,8.07,0,0,1,259.14,181.1Z"/><path class="cls-6" d="M271,181c1.39-.19,2.09.54,2.09,2.19a6.41,6.41,0,0,1-1.06,3.53,8.7,8.7,0,0,1-3.14,2.91c-1.38.8-2.43,1-3.12.65a2.39,2.39,0,0,1-1-2.3,6.46,6.46,0,0,1,2.11-4.57c-1.18-.08-1.77-.79-1.77-2.14a5.92,5.92,0,0,1,1-3.21,8.17,8.17,0,0,1,2.8-2.6c1.23-.71,2.18-.92,2.84-.65s1,.94,1,2A6.79,6.79,0,0,1,271,181Zm-.9,5.21a3.74,3.74,0,0,0,.46-1.81,1.54,1.54,0,0,0-.47-1.3c-.29-.24-.69-.21-1.18.08a3.1,3.1,0,0,0-1.16,1.26,3.82,3.82,0,0,0-.45,1.84,1.48,1.48,0,0,0,.45,1.29,1.09,1.09,0,0,0,1.18-.12,3.06,3.06,0,0,0,1.17-1.24m-2.23-7.55a3.2,3.2,0,0,0-.39,1.61,1.32,1.32,0,0,0,.38,1.07c.26.2.6.17,1-.08a2.72,2.72,0,0,0,1-1.1,3.31,3.31,0,0,0,.37-1.55,1.39,1.39,0,0,0-.36-1.11c-.25-.19-.6-.17-1,.08a2.8,2.8,0,0,0-1,1.08"/><g class="cls-7"><polygon class="cls-8" points="41.74 212.82 41.77 224.37 43.33 223.47 43.34 225.67 37.49 229.04 37.48 226.84 39.13 225.89 39.1 216.56 37.36 217.57 37.36 215.35 41.74 212.82"/><path class="cls-8" d="M76.65,192.44c1.13-.65,2-.81,2.68-.47a2.24,2.24,0,0,1,1,2.15A5.41,5.41,0,0,1,80,195.9a8.65,8.65,0,0,1-.75,1.66q-.45.76-1.59,2.37a19.41,19.41,0,0,0-2.15,3.48,7,7,0,0,0-.51,1.76l3.49-2v-1.79l1.91-1.1-.09,4.05-7.66,4.42a14.62,14.62,0,0,1,.25-2.94,11.64,11.64,0,0,1,.84-2.39,29.76,29.76,0,0,1,1.6-3,35.4,35.4,0,0,0,1.8-3.17,3.93,3.93,0,0,0,.43-1.76,1,1,0,0,0-.33-.86.75.75,0,0,0-.82.06,2.48,2.48,0,0,0-1,1.29,7.13,7.13,0,0,0-.38,2.43l-2.19,1.14a8.71,8.71,0,0,1,.51-3.29A7.32,7.32,0,0,1,74.72,194,8.12,8.12,0,0,1,76.65,192.44Z"/><path class="cls-8" d="M113.77,171c1.18-.68,2.09-.89,2.75-.62s1,1,1,2.08a6.15,6.15,0,0,1-1.79,4.16c1.48-.31,2.22.36,2.23,2a6.77,6.77,0,0,1-1.13,3.7,8.53,8.53,0,0,1-2.9,2.77q-3.84,2.22-4.16-2l2.31-1.55c0,1.6.56,2.11,1.59,1.52a3.1,3.1,0,0,0,1.14-1.25,3.78,3.78,0,0,0,.43-1.72,1.47,1.47,0,0,0-.44-1.22c-.28-.24-.72-.19-1.29.14-.14.09-.31.2-.54.33v-2.31a4,4,0,0,0,1.49-1.39,3.11,3.11,0,0,0,.46-1.55,1,1,0,0,0-.36-.89.87.87,0,0,0-.93.09,2.69,2.69,0,0,0-1.26,2.56L110.11,177a6.77,6.77,0,0,1,1.09-3.48A7.49,7.49,0,0,1,113.77,171Z"/><path class="cls-8" d="M155.94,156.87l-1.16.67v1.76l1-.58v2l-4.8,2.77v-2l1.32-.76V159l-4.38,2.53a6.52,6.52,0,0,0-.65-1.39l5.12-11.41,2.35-1.35,0,8.31,1.16-.67Zm-3.63.22,0-4.8-2.95,6.51,3-1.71"/><path class="cls-8" d="M192.87,125.57v3.23l-1.76,1-.16-.92-3.07,1.77-.15,3.39a6.53,6.53,0,0,1,2-2c1.16-.67,2.07-.77,2.72-.27a3.12,3.12,0,0,1,1,2.63,8.16,8.16,0,0,1-1,3.95,7.94,7.94,0,0,1-3.13,3.17c-1.19.68-2.13.87-2.79.56a2.5,2.5,0,0,1-1.24-2.12l2.27-1.63c.15,1.24.68,1.6,1.58,1.08a3,3,0,0,0,1.2-1.3,4.31,4.31,0,0,0,.4-1.92c0-1.63-.52-2.14-1.56-1.54a3.69,3.69,0,0,0-1.43,1.9h-1.93l.34-7.17Z"/><path class="cls-8" d="M229.83,110.28c.63.36.95,1.24,1,2.62a8.21,8.21,0,0,1-1,4.11,7.1,7.1,0,0,1-2.65,2.73c-1.46.84-2.55.91-3.25.19s-1.08-2.25-1.09-4.63a14,14,0,0,1,1.19-6.22,8.24,8.24,0,0,1,3.27-3.59c2-1.14,3.11-.58,3.36,1.72l-2.06,1.4c-.24-1-.7-1.34-1.39-.94a3.22,3.22,0,0,0-1.3,1.84,10.62,10.62,0,0,0-.48,3.14,5.83,5.83,0,0,1,2.11-2.13A2.24,2.24,0,0,1,229.83,110.28ZM228,116.43a4.88,4.88,0,0,0,.35-2,1.75,1.75,0,0,0-.43-1.4.93.93,0,0,0-1,.06,5,5,0,0,0-1.51,1.46,6,6,0,0,0,.49,2.84c.28.4.69.43,1.2.14a2.33,2.33,0,0,0,.94-1.14"/><path class="cls-8" d="M42.53,250c1.39-.2,2.09.53,2.1,2.2a6.59,6.59,0,0,1-1.06,3.53,8.91,8.91,0,0,1-3.14,2.89c-1.39.8-2.42,1-3.12.65a2.35,2.35,0,0,1-1.05-2.3,6.34,6.34,0,0,1,2.11-4.56c-1.17-.1-1.77-.8-1.77-2.15a5.67,5.67,0,0,1,1-3.19,8,8,0,0,1,2.79-2.62c1.23-.71,2.18-.92,2.85-.65s1,.94,1,2A6.71,6.71,0,0,1,42.53,250Zm-.9,5.2a3.64,3.64,0,0,0,.46-1.81,1.6,1.6,0,0,0-.45-1.3c-.31-.24-.7-.21-1.19.07a3.13,3.13,0,0,0-1.16,1.27,3.92,3.92,0,0,0-.46,1.84,1.44,1.44,0,0,0,.47,1.28,1,1,0,0,0,1.16-.09,3.11,3.11,0,0,0,1.17-1.26m-2.22-7.55a3.2,3.2,0,0,0-.38,1.61,1.27,1.27,0,0,0,.37,1.06c.25.21.59.18,1-.07a2.68,2.68,0,0,0,1-1.1,3.28,3.28,0,0,0,.38-1.54,1.39,1.39,0,0,0-.38-1.12c-.23-.2-.58-.17-1,.1a2.72,2.72,0,0,0-1,1.06"/><path class="cls-8" d="M79.54,223.47c.71.67,1.09,2.28,1.1,4.79q0,7.11-4.39,9.65a2.65,2.65,0,0,1-2.36.42c-.62-.27-1-1-1.06-2.16l2-1.4c.24,1,.7,1.35,1.37,1,1.07-.61,1.68-2.27,1.81-5a6.87,6.87,0,0,1-2.22,2.15,2.09,2.09,0,0,1-2.28.16c-.62-.4-.94-1.27-.94-2.6a8,8,0,0,1,1-3.91,7.18,7.18,0,0,1,2.81-2.94C77.78,222.85,78.81,222.8,79.54,223.47Zm-1.48,5.32v-.15a5.42,5.42,0,0,0-.44-2.42c-.3-.56-.73-.67-1.34-.32a2.29,2.29,0,0,0-.9,1.13A4.83,4.83,0,0,0,75,228.9a2.22,2.22,0,0,0,.38,1.41c.25.3.63.29,1.13,0a5.41,5.41,0,0,0,1.52-1.52"/><polygon class="cls-8" points="109.91 204.71 109.95 216.25 111.5 215.35 111.51 217.55 105.67 220.92 105.67 218.72 107.32 217.77 107.29 208.42 105.54 209.44 105.53 207.24 109.91 204.71"/><path class="cls-8" d="M121.29,199.75c.69.83,1,2.38,1,4.64a14.57,14.57,0,0,1-1,5.87,7.3,7.3,0,0,1-3.05,3.58q-2,1.17-3.06-.06c-.71-.81-1.07-2.35-1.07-4.64a14.89,14.89,0,0,1,1-5.82,7.22,7.22,0,0,1,3.08-3.63C119.56,198.9,120.58,198.92,121.29,199.75Zm-1.92,9.52a27.24,27.24,0,0,0,.23-3.3,13.61,13.61,0,0,0-.33-3.45c-.21-.69-.57-.9-1.06-.62a2.71,2.71,0,0,0-1.06,1.88,17.75,17.75,0,0,0-.31,3.78,12.65,12.65,0,0,0,.33,3.44c.21.7.57.89,1,.61a2.93,2.93,0,0,0,1.16-2.34"/><polygon class="cls-8" points="148.23 182.17 148.26 193.7 149.83 192.8 149.84 195.01 143.99 198.39 143.98 196.17 145.63 195.22 145.61 185.89 143.85 186.91 143.84 184.71 148.23 182.17"/><polygon class="cls-8" points="157.94 176.56 157.98 188.09 159.53 187.19 159.54 189.41 153.71 192.78 153.7 190.56 155.35 189.61 155.32 180.28 153.57 181.29 153.56 179.09 157.94 176.56"/><polygon class="cls-8" points="185.62 161 185.65 172.54 187.21 171.64 187.22 173.84 181.37 177.22 181.36 175.02 183.01 174.07 182.98 164.72 181.23 165.74 181.22 163.53 185.62 161"/><path class="cls-8" d="M193.88,156c1.15-.67,2.05-.82,2.7-.48a2.21,2.21,0,0,1,1,2.15,5.31,5.31,0,0,1-.3,1.77,8.18,8.18,0,0,1-.73,1.67c-.3.51-.83,1.28-1.59,2.36a20.16,20.16,0,0,0-2.15,3.48,7,7,0,0,0-.52,1.77l3.49-2v-1.79l1.91-1.1-.09,4.05-7.66,4.42a14.07,14.07,0,0,1,.24-2.94A12.64,12.64,0,0,1,191,167a31.45,31.45,0,0,1,1.62-3c.91-1.5,1.51-2.54,1.8-3.17a4.23,4.23,0,0,0,.42-1.76,1,1,0,0,0-.32-.86.73.73,0,0,0-.82.06,2.48,2.48,0,0,0-1.05,1.29,7.35,7.35,0,0,0-.39,2.43l-2.2,1.15a9,9,0,0,1,.52-3.3,7.42,7.42,0,0,1,1.4-2.26A7.94,7.94,0,0,1,193.88,156Z"/><polygon class="cls-8" points="222.93 139.46 222.96 151 224.52 150.1 224.53 152.3 218.69 155.67 218.68 153.47 220.33 152.52 220.31 143.17 218.55 144.19 218.55 141.99 222.93 139.46"/><path class="cls-8" d="M231,134.56a3.36,3.36,0,0,1,2.75-.63c.65.27,1,1,1,2.09a6.12,6.12,0,0,1-1.77,4.16c1.48-.31,2.22.36,2.23,2a6.7,6.7,0,0,1-1.14,3.7,8.62,8.62,0,0,1-2.91,2.79c-2.56,1.48-3.93.8-4.14-2l2.31-1.55c0,1.59.56,2.09,1.58,1.51a2.91,2.91,0,0,0,1.13-1.24,3.64,3.64,0,0,0,.45-1.74,1.48,1.48,0,0,0-.44-1.21c-.3-.22-.72-.18-1.3.16-.13.08-.3.17-.53.32V140.6a4,4,0,0,0,1.49-1.39,3,3,0,0,0,.45-1.56,1,1,0,0,0-.36-.9.91.91,0,0,0-.92.11,2.72,2.72,0,0,0-1.28,2.56l-2.23,1.09a6.77,6.77,0,0,1,1.09-3.48A7.31,7.31,0,0,1,231,134.56Z"/><polygon class="cls-8" points="36.57 278.29 36.6 289.82 38.17 288.92 38.18 291.13 32.33 294.51 32.32 292.29 33.98 291.34 33.95 282.01 32.19 283.02 32.19 280.82 36.57 278.29"/><path class="cls-8" d="M48.24,271.55v3.24l-1.74,1-.18-.93-3.07,1.78L43.11,280a6.56,6.56,0,0,1,2-2c1.17-.68,2.07-.76,2.72-.26a3.13,3.13,0,0,1,1,2.63,8.1,8.1,0,0,1-1,3.94,7.77,7.77,0,0,1-3.12,3.16c-1.2.69-2.14.89-2.8.57A2.5,2.5,0,0,1,40.66,286l2.26-1.61c.16,1.23.68,1.58,1.59,1.06a3,3,0,0,0,1.19-1.28,4.38,4.38,0,0,0,.4-1.93c0-1.63-.52-2.15-1.56-1.55a3.78,3.78,0,0,0-1.43,1.9l-1.91,0,.32-7.17Z"/><polygon class="cls-8" points="72.71 257.67 72.74 269.2 74.31 268.3 74.32 270.5 68.47 273.87 68.46 271.67 70.11 270.72 70.08 261.39 68.33 262.4 68.32 260.2 72.71 257.67"/><path class="cls-8" d="M84.13,257.11c.64.36,1,1.24,1,2.62a8.16,8.16,0,0,1-1,4.1,7.11,7.11,0,0,1-2.67,2.74c-1.45.84-2.53.9-3.25.2s-1.06-2.27-1.07-4.65a13.77,13.77,0,0,1,1.18-6.22,8.31,8.31,0,0,1,3.26-3.58q3-1.73,3.36,1.72l-2,1.4c-.26-1-.72-1.34-1.41-.94a3.24,3.24,0,0,0-1.29,1.84,10,10,0,0,0-.48,3.13,5.84,5.84,0,0,1,2.11-2.11A2.23,2.23,0,0,1,84.13,257.11Zm-1.82,6.16a4.79,4.79,0,0,0,.35-2c0-.71-.13-1.18-.43-1.39a.91.91,0,0,0-1,0,5.05,5.05,0,0,0-1.49,1.45,6.08,6.08,0,0,0,.47,2.85c.29.39.69.44,1.22.13a2.34,2.34,0,0,0,.92-1.12"/><polygon class="cls-8" points="110.15 235.99 110.18 247.52 111.75 246.62 111.76 248.82 105.91 252.19 105.9 249.99 107.55 249.04 107.53 239.71 105.77 240.72 105.77 238.53 110.15 235.99"/><path class="cls-8" d="M122.24,229v1.69a26.91,26.91,0,0,0-1.81,5.39,24.69,24.69,0,0,0-.91,6l1.52-.88v2.2l-5.77,3.33v-2.2l1.5-.87a25.4,25.4,0,0,1,1-5.38,37.37,37.37,0,0,1,2-5.75l-3.07,1.77v1.93l-1.92,1.1v-4.06Z"/><polygon class="cls-8" points="147.71 213.94 147.74 225.49 149.31 224.58 149.32 226.78 143.47 230.16 143.46 227.96 145.11 227.01 145.09 217.66 143.33 218.67 143.33 216.47 147.71 213.94"/><path class="cls-8" d="M158.14,214.45c1.39-.19,2.08.55,2.09,2.2a6.49,6.49,0,0,1-1.06,3.53,8.87,8.87,0,0,1-3.14,2.91c-1.38.79-2.42,1-3.12.65a2.4,2.4,0,0,1-1-2.3,6.44,6.44,0,0,1,2.11-4.58c-1.17-.08-1.77-.78-1.78-2.13a5.85,5.85,0,0,1,1-3.21,8.14,8.14,0,0,1,2.81-2.61c1.22-.7,2.16-.93,2.82-.64a1.9,1.9,0,0,1,1,2A6.67,6.67,0,0,1,158.14,214.45Zm-.91,5.22a3.56,3.56,0,0,0,.46-1.81,1.56,1.56,0,0,0-.45-1.3,1,1,0,0,0-1.18.07,3.09,3.09,0,0,0-1.17,1.27,3.92,3.92,0,0,0-.46,1.84,1.42,1.42,0,0,0,.47,1.28c.3.21.68.17,1.17-.11a3,3,0,0,0,1.16-1.24M155,212.11a3.13,3.13,0,0,0-.4,1.61,1.34,1.34,0,0,0,.39,1.07c.25.2.6.17,1-.08a2.63,2.63,0,0,0,1-1.09,3.35,3.35,0,0,0,.38-1.55,1.3,1.3,0,0,0-.38-1.11c-.24-.21-.58-.18-1,.08a2.68,2.68,0,0,0-1,1.07"/><polygon class="cls-8" points="185.6 192.49 185.63 204.02 187.21 203.12 187.21 205.31 181.36 208.69 181.36 206.49 183.01 205.54 182.98 196.21 181.22 197.22 181.22 195.02 185.6 192.49"/><path class="cls-8" d="M196.75,187.45c.73.68,1.09,2.28,1.1,4.79q0,7.11-4.38,9.64a2.68,2.68,0,0,1-2.37.43c-.62-.27-1-1-1-2.16l2-1.39c.25,1,.7,1.34,1.37,1,1.07-.61,1.68-2.27,1.82-5a6.71,6.71,0,0,1-2.22,2.13,2.05,2.05,0,0,1-2.27.16c-.64-.39-1-1.26-1-2.59a8.07,8.07,0,0,1,1-3.91,7.23,7.23,0,0,1,2.82-3C195,186.83,196,186.78,196.75,187.45Zm-1.48,5.33v-.14a5.47,5.47,0,0,0-.43-2.44c-.29-.56-.74-.67-1.34-.32a2.26,2.26,0,0,0-.91,1.14,4.88,4.88,0,0,0-.34,1.85,2.18,2.18,0,0,0,.38,1.41c.25.3.62.3,1.14,0a5.4,5.4,0,0,0,1.5-1.5"/><path class="cls-8" d="M222,171.4c1.15-.66,2.05-.82,2.69-.48a2.25,2.25,0,0,1,1,2.15,5.79,5.79,0,0,1-.3,1.79,8.88,8.88,0,0,1-.74,1.65c-.3.51-.83,1.29-1.59,2.37a20.68,20.68,0,0,0-2.16,3.48,7.16,7.16,0,0,0-.51,1.77l3.5-2v-1.79l1.92-1.11-.1,4-7.65,4.42a13.26,13.26,0,0,1,.24-2.93,12.05,12.05,0,0,1,.83-2.4,32.36,32.36,0,0,1,1.61-3,31.49,31.49,0,0,0,1.79-3.16,4.09,4.09,0,0,0,.44-1.77,1,1,0,0,0-.32-.86.77.77,0,0,0-.82.06,2.43,2.43,0,0,0-1.06,1.3,7.9,7.9,0,0,0-.39,2.42l-2.19,1.15a8.92,8.92,0,0,1,.51-3.29,7.4,7.4,0,0,1,1.4-2.27A8,8,0,0,1,222,171.4Z"/><path class="cls-8" d="M234.84,165.84c.69.83,1,2.38,1,4.64a14.66,14.66,0,0,1-1,5.88,7.42,7.42,0,0,1-3,3.58c-1.34.77-2.37.75-3.07-.06s-1.06-2.36-1.07-4.65a14.81,14.81,0,0,1,1-5.81,7.35,7.35,0,0,1,3.09-3.64C233.12,165,234.15,165,234.84,165.84Zm-1.92,9.53a24.1,24.1,0,0,0,.24-3.32,12.47,12.47,0,0,0-.34-3.43c-.21-.7-.57-.9-1.06-.62a2.72,2.72,0,0,0-1.06,1.87,18.71,18.71,0,0,0-.31,3.8,13.48,13.48,0,0,0,.33,3.43c.23.69.57.9,1.05.62a3,3,0,0,0,1.15-2.35"/><path class="cls-8" d="M35.85,310.13c1.15-.66,2-.83,2.7-.48a2.22,2.22,0,0,1,1,2.15,5.31,5.31,0,0,1-.3,1.77,8,8,0,0,1-.73,1.67c-.3.51-.83,1.29-1.59,2.35a21,21,0,0,0-2.16,3.5,7.16,7.16,0,0,0-.51,1.77l3.49-2v-1.79l1.91-1.11L39.55,322l-7.66,4.42a13.82,13.82,0,0,1,.25-2.93,12.2,12.2,0,0,1,.82-2.4q.6-1.27,1.62-3A35.07,35.07,0,0,0,36.37,315a4.15,4.15,0,0,0,.43-1.78,1,1,0,0,0-.32-.85.75.75,0,0,0-.82.06,2.49,2.49,0,0,0-1,1.28,7.58,7.58,0,0,0-.39,2.45L32,317.25a9.13,9.13,0,0,1,.51-3.29,7.36,7.36,0,0,1,1.41-2.28A8.39,8.39,0,0,1,35.85,310.13Z"/><path class="cls-8" d="M45.57,304.52c1.14-.65,2-.82,2.7-.48a2.25,2.25,0,0,1,1,2.16A5.5,5.5,0,0,1,49,308a7.33,7.33,0,0,1-.75,1.68c-.29.5-.83,1.29-1.58,2.34a21,21,0,0,0-2.16,3.5,7.63,7.63,0,0,0-.51,1.77l3.49-2v-1.79l1.93-1.11-.09,4.05-7.66,4.42a13.9,13.9,0,0,1,.24-2.93,12.72,12.72,0,0,1,.83-2.4,27.58,27.58,0,0,1,1.62-3c.9-1.49,1.5-2.53,1.79-3.16a4.15,4.15,0,0,0,.43-1.78.92.92,0,0,0-.34-.84.73.73,0,0,0-.82.06,2.5,2.5,0,0,0-1,1.27,8.17,8.17,0,0,0-.39,2.45l-2.19,1.14a9.13,9.13,0,0,1,.51-3.29,7.5,7.5,0,0,1,1.39-2.28A8.71,8.71,0,0,1,45.57,304.52Z"/><path class="cls-8" d="M72,289.52c1.14-.66,2-.81,2.68-.46a2.19,2.19,0,0,1,1,2.14,5.62,5.62,0,0,1-.29,1.78,8.08,8.08,0,0,1-.75,1.66c-.3.51-.83,1.3-1.59,2.36a20.68,20.68,0,0,0-2.15,3.49,6.94,6.94,0,0,0-.51,1.75l3.49-2v-1.79l1.93-1.11-.09,4.05L68,305.8a13.74,13.74,0,0,1,.24-2.92,12.56,12.56,0,0,1,.83-2.41,29.62,29.62,0,0,1,1.62-3c.9-1.48,1.5-2.54,1.79-3.14a4.29,4.29,0,0,0,.43-1.79.92.92,0,0,0-.34-.85.73.73,0,0,0-.82.06,2.44,2.44,0,0,0-1,1.28,7.81,7.81,0,0,0-.39,2.45l-2.19,1.14a9.19,9.19,0,0,1,.51-3.3A7.21,7.21,0,0,1,70,291.09,8.07,8.07,0,0,1,72,289.52Z"/><path class="cls-8" d="M81.48,284c1.18-.67,2.09-.88,2.74-.6s1,1,1,2.07a6.06,6.06,0,0,1-1.77,4.16c1.48-.29,2.22.37,2.23,2a6.72,6.72,0,0,1-1.14,3.72,8.47,8.47,0,0,1-2.91,2.77c-2.56,1.47-3.93.81-4.14-2l2.31-1.56c0,1.61.56,2.11,1.58,1.52a3,3,0,0,0,1.13-1.25,3.63,3.63,0,0,0,.43-1.72,1.49,1.49,0,0,0-.42-1.23c-.3-.22-.72-.18-1.3.16-.13.07-.32.2-.53.33v-2.32a3.77,3.77,0,0,0,1.47-1.37,3,3,0,0,0,.47-1.56,1,1,0,0,0-.35-.9.88.88,0,0,0-.93.11,2.68,2.68,0,0,0-1.28,2.54L77.82,290a6.82,6.82,0,0,1,1.08-3.48A7.73,7.73,0,0,1,81.48,284Z"/><path class="cls-8" d="M109.17,267.8c1.13-.65,2-.82,2.68-.47a2.24,2.24,0,0,1,1,2.15,5.87,5.87,0,0,1-.3,1.77,8.2,8.2,0,0,1-.74,1.67c-.3.51-.83,1.29-1.59,2.35a20.51,20.51,0,0,0-2.15,3.49,6.85,6.85,0,0,0-.51,1.77l3.49-2v-1.79l1.92-1.11-.1,4.05-7.66,4.42a14.51,14.51,0,0,1,.25-2.93,11.51,11.51,0,0,1,.84-2.4,28.7,28.7,0,0,1,1.6-3c.91-1.49,1.51-2.54,1.8-3.16a4.08,4.08,0,0,0,.43-1.79,1,1,0,0,0-.33-.84.75.75,0,0,0-.82.06,2.49,2.49,0,0,0-1,1.28,7.33,7.33,0,0,0-.38,2.44l-2.19,1.14a8.82,8.82,0,0,1,.51-3.28,7.19,7.19,0,0,1,1.39-2.28A8.37,8.37,0,0,1,109.17,267.8Z"/><path class="cls-8" d="M123.06,270l-1.16.67v1.77l1-.58v2l-4.8,2.77v-2l1.34-.77v-1.77l-4.39,2.54a9,9,0,0,0-.64-1.4l5.11-11.38,2.35-1.36,0,8.31,1.16-.67Zm-3.62.22,0-4.79-3,6.51,3-1.72"/><path class="cls-8" d="M147,245.77c1.13-.66,2-.81,2.68-.47a2.22,2.22,0,0,1,1,2.15,5.65,5.65,0,0,1-.29,1.77,8.74,8.74,0,0,1-.75,1.67c-.29.5-.83,1.28-1.58,2.35a21.52,21.52,0,0,0-2.16,3.48,7.28,7.28,0,0,0-.51,1.77l3.49-2v-1.79l1.93-1.11-.09,4-7.66,4.42a13.42,13.42,0,0,1,.24-2.94,12.64,12.64,0,0,1,.83-2.39,28.57,28.57,0,0,1,1.62-3c.9-1.48,1.5-2.54,1.79-3.16a4.29,4.29,0,0,0,.43-1.77,1,1,0,0,0-.34-.86.74.74,0,0,0-.82.07,2.44,2.44,0,0,0-1,1.28,7.91,7.91,0,0,0-.39,2.43l-2.19,1.15a9.09,9.09,0,0,1,.51-3.29,7.33,7.33,0,0,1,1.39-2.27A8.22,8.22,0,0,1,147,245.77Z"/><path class="cls-8" d="M160.12,238.43v3.23l-1.75,1-.16-.92-3.07,1.77-.17,3.39A6.68,6.68,0,0,1,157,245c1.16-.67,2.07-.77,2.72-.27a3.15,3.15,0,0,1,1,2.63,8.13,8.13,0,0,1-1,4,7.83,7.83,0,0,1-3.13,3.15c-1.2.7-2.12.88-2.78.56a2.44,2.44,0,0,1-1.24-2.11l2.26-1.62c.16,1.23.69,1.59,1.59,1.07a3,3,0,0,0,1.18-1.29,4.25,4.25,0,0,0,.42-1.93c0-1.64-.52-2.14-1.56-1.54a3.68,3.68,0,0,0-1.44,1.91h-1.92l.34-7.16Z"/><path class="cls-8" d="M184.73,224.41c1.13-.66,2-.81,2.68-.46a2.21,2.21,0,0,1,1,2.14,5.31,5.31,0,0,1-.28,1.77,8.74,8.74,0,0,1-.75,1.67c-.3.51-.83,1.3-1.59,2.36a19.39,19.39,0,0,0-2.15,3.49,6.94,6.94,0,0,0-.51,1.75l3.49-2v-1.79l1.91-1.11-.09,4.05-7.66,4.43a13.66,13.66,0,0,1,.26-2.93,11,11,0,0,1,.83-2.41,32.14,32.14,0,0,1,1.6-3c.91-1.48,1.51-2.55,1.8-3.16a4.07,4.07,0,0,0,.43-1.78,1,1,0,0,0-.33-.86.74.74,0,0,0-.82.07,2.44,2.44,0,0,0-1.05,1.29,7.19,7.19,0,0,0-.38,2.44l-2.19,1.14a8.73,8.73,0,0,1,.51-3.3A7.26,7.26,0,0,1,182.8,226,8.07,8.07,0,0,1,184.73,224.41Z"/><path class="cls-8" d="M197.58,223.26q.94.54,1,2.64a8.06,8.06,0,0,1-1,4.08,7,7,0,0,1-2.66,2.74c-1.45.84-2.54.9-3.25.21s-1.07-2.26-1.07-4.66a13.73,13.73,0,0,1,1.18-6.21,8.2,8.2,0,0,1,3.26-3.58c2-1.16,3.1-.58,3.36,1.72l-2,1.39c-.24-1-.72-1.33-1.41-.94a3.2,3.2,0,0,0-1.29,1.84,10.32,10.32,0,0,0-.48,3.15,5.83,5.83,0,0,1,2.11-2.13A2.25,2.25,0,0,1,197.58,223.26Zm-1.82,6.16a4.89,4.89,0,0,0,.35-1.95c0-.73-.14-1.2-.43-1.4a.89.89,0,0,0-1,.05,4.81,4.81,0,0,0-1.49,1.45,6.2,6.2,0,0,0,.47,2.86c.29.38.69.43,1.21.13a2.27,2.27,0,0,0,.93-1.14"/><path class="cls-8" d="M222.28,202.91c1.13-.66,2-.81,2.68-.47a2.22,2.22,0,0,1,1,2.15,5.69,5.69,0,0,1-.28,1.78,8.65,8.65,0,0,1-.75,1.66c-.3.51-.83,1.3-1.59,2.36a19.75,19.75,0,0,0-2.15,3.49,7,7,0,0,0-.51,1.76l3.48-2v-1.79l1.91-1.1-.09,4.05-7.66,4.42a13.83,13.83,0,0,1,.26-2.94,11,11,0,0,1,.82-2.4,31.25,31.25,0,0,1,1.61-3,35.4,35.4,0,0,0,1.8-3.17,4.07,4.07,0,0,0,.43-1.77,1,1,0,0,0-.33-.85.73.73,0,0,0-.82.06,2.48,2.48,0,0,0-1,1.29,7.11,7.11,0,0,0-.38,2.42L218.45,210a8.93,8.93,0,0,1,.5-3.29,7.42,7.42,0,0,1,1.4-2.26A7.88,7.88,0,0,1,222.28,202.91Z"/><path class="cls-8" d="M235.8,195.33V197a28,28,0,0,0-1.81,5.39,25.56,25.56,0,0,0-.91,6l1.52-.87v2.2l-5.77,3.33v-2.2l1.51-.87a25,25,0,0,1,1-5.38,36.63,36.63,0,0,1,2-5.75l-3.06,1.77v1.92l-1.91,1.11v-4.08Z"/><path class="cls-8" d="M35.85,341.42c1.15-.66,2-.81,2.7-.46a2.22,2.22,0,0,1,1,2.13,5.7,5.7,0,0,1-.3,1.79,8.65,8.65,0,0,1-.75,1.66c-.29.5-.83,1.3-1.58,2.36a20.25,20.25,0,0,0-2.16,3.49,7,7,0,0,0-.51,1.76l3.5-2v-1.79l1.91-1.11-.09,4-7.66,4.42a13.11,13.11,0,0,1,.24-2.92,12.18,12.18,0,0,1,.83-2.39,29.51,29.51,0,0,1,1.62-3c.9-1.48,1.5-2.53,1.79-3.14a4.33,4.33,0,0,0,.43-1.78,1,1,0,0,0-.34-.86.72.72,0,0,0-.8.05A2.48,2.48,0,0,0,34.6,345a8,8,0,0,0-.39,2.44L32,348.55a9,9,0,0,1,.51-3.28A7.26,7.26,0,0,1,33.92,343,8.27,8.27,0,0,1,35.85,341.42Z"/><path class="cls-8" d="M48.44,335.8c.71.68,1.09,2.27,1.09,4.79q0,7.1-4.39,9.64a2.64,2.64,0,0,1-2.35.43c-.62-.26-1-1-1-2.16l2-1.4c.24,1,.71,1.36,1.38,1,1.07-.62,1.67-2.27,1.81-5a6.57,6.57,0,0,1-2.23,2.14,2.12,2.12,0,0,1-2.27.18c-.62-.42-.94-1.28-1-2.62a8.31,8.31,0,0,1,1-3.91A7.18,7.18,0,0,1,45.33,336C46.68,335.17,47.71,335.12,48.44,335.8ZM47,341.13V341a5.42,5.42,0,0,0-.45-2.43.82.82,0,0,0-1.32-.33,2.34,2.34,0,0,0-.91,1.14,4.57,4.57,0,0,0-.34,1.86,2.07,2.07,0,0,0,.38,1.41c.24.3.62.29,1.12,0a5.43,5.43,0,0,0,1.52-1.5"/><path class="cls-8" d="M71.89,321c1.18-.68,2.09-.89,2.74-.63s1,1,1,2.09a6.09,6.09,0,0,1-1.78,4.17c1.48-.31,2.22.35,2.22,2a6.57,6.57,0,0,1-1.12,3.69,8.62,8.62,0,0,1-2.9,2.77c-2.57,1.48-4,.82-4.15-2l2.3-1.54q0,2.38,1.59,1.5a3.07,3.07,0,0,0,1.13-1.23,3.64,3.64,0,0,0,.43-1.74,1.41,1.41,0,0,0-.44-1.21c-.27-.23-.71-.18-1.28.15l-.54.33v-2.31a3.88,3.88,0,0,0,1.49-1.39,3,3,0,0,0,.46-1.56,1,1,0,0,0-.36-.9c-.22-.16-.54-.11-.91.1a2.68,2.68,0,0,0-1.27,2.56L68.23,327a6.73,6.73,0,0,1,1.08-3.47A7.37,7.37,0,0,1,71.89,321Z"/><path class="cls-8" d="M84.88,315.38c.69.83,1,2.38,1,4.64a14.61,14.61,0,0,1-1,5.87,7.31,7.31,0,0,1-3,3.57c-1.35.78-2.37.76-3.07,0s-1.07-2.35-1.07-4.64a14.89,14.89,0,0,1,1-5.82,7.19,7.19,0,0,1,3.09-3.63C83.16,314.53,84.19,314.55,84.88,315.38ZM83,324.9a25.35,25.35,0,0,0,.23-3.3,13.16,13.16,0,0,0-.33-3.45c-.21-.69-.57-.9-1.06-.62a2.69,2.69,0,0,0-1.06,1.88,17.69,17.69,0,0,0-.31,3.78,12.7,12.7,0,0,0,.33,3.44c.21.68.57.89,1,.61A3,3,0,0,0,83,324.9"/></g><path class="cls-9" d="M267.67,22.05c7.64-4.41,13.84-.87,13.87,7.91l.08,30.27-259,149.55-.08-30.27c0-8.78,6.14-19.46,13.77-23.87Z"/><path class="cls-5" d="M150.91,99.07l.08,26.35-5.1,2.94,0-15.76c0-1.7,0-3.62.18-5.75l-.13.07c-.26,1.77-.5,3.07-.71,3.91l-5.32,21-4.22,2.44-5.52-14.57a26.22,26.22,0,0,1-.73-3.26l-.14.08c.14,2.52.22,4.76.22,6.72l0,14.57-4.65,2.68-.07-26.35,7.56-4.36,4.73,12.91a16.6,16.6,0,0,1,.82,3.3l.1-.06c.29-1.62.58-3.06.9-4.33l4.64-18.28Z"/><path class="cls-5" d="M194,74.21,186.55,95.5l0,9.37-5.16,3,0-9.26-7.33-12.88L180,82.3l3.72,7.7c.07.15.25.76.54,1.84.2-1,.36-1.79.55-2.4l3.73-12.07Z"/><path class="cls-5" d="M168.13,89.13l8.23,21.64L170.73,114l-1.65-4.92-8.15,4.7-1.59,6.8-5.61,3.23L162,92.66ZM162,108.61l5.87-3.39-2.49-7.43a10.05,10.05,0,0,1-.39-2.14l-.13.07a15.14,15.14,0,0,1-.39,2.53L162,108.61"/><ellipse class="cls-10" cx="253.45" cy="420.92" rx="39.81" ry="22.99"/><g id="Men_3"><path class="cls-11" d="M284,270.32s-1.12,16.89-3.33,19.31-9.71,4.1-9.71,4.1l-5.77,9.49s5.27-30.19,6.41-30.91S284,270.32,284,270.32Z"/><path class="cls-12" d="M272.86,251.57a6.31,6.31,0,0,1,8,2.43c2.12,3.51,4.33,15.58,4.53,17.64,0,0-3,4.11-7.45,3.43Z"/><path class="cls-13" d="M255.76,420.1a12.4,12.4,0,0,1-9.34-1.13c-2.25.07-14.46-5.16-16.13-.77-1.45,3.84,3.84,7.4,6.66,8.09,6.17,1.49,10.74,4.57,13.22,5.09,1.84.39,4.23.65,5.7-.81C257.64,428.83,257.48,422.39,255.76,420.1Z"/><path class="cls-14" d="M250.17,430.32c-2.48-.53-7-3.6-13.22-5.1-2.36-.57-6.44-3.16-6.86-6.25-.54,3.54,4.23,6.68,6.86,7.32,6.17,1.49,10.74,4.57,13.22,5.09,1.84.39,4.23.65,5.7-.81a3.6,3.6,0,0,0,.81-1.47A7.42,7.42,0,0,1,250.17,430.32Z"/><path class="cls-13" d="M274.78,414.17a12.35,12.35,0,0,1-9.34-1.13c-2.25.07-14.47-5.16-16.13-.77-1.45,3.85,3.84,7.4,6.66,8.09,6.17,1.49,10.74,4.57,13.21,5.09,1.85.39,4.24.65,5.71-.8C276.66,422.9,276.5,416.46,274.78,414.17Z"/><path class="cls-14" d="M269.18,424.39c-2.47-.53-7-3.6-13.21-5.1-2.37-.57-6.45-3.16-6.86-6.25-.55,3.54,4.23,6.68,6.86,7.32,6.17,1.49,10.74,4.57,13.21,5.09,1.85.39,4.24.65,5.71-.8a3.65,3.65,0,0,0,.81-1.48A7.44,7.44,0,0,1,269.18,424.39Z"/><path class="cls-15" d="M276.13,379.82a74.81,74.81,0,0,0-2.82-13.37s.84-11.55,1.26-22.49c.48-12.42,4.79-23.35,1.39-33.26l-37.83,8.41s1.82,49.62,2.33,55.62a114.67,114.67,0,0,0,1.72,13.9c1.75,9.61,3.66,31.13,3.66,31.13,4,2.35,10,.42,10,.42s0-26.94-.23-33.86c-.32-8.46-.58-7.81-.58-7.81l1.27-21.07.82-10.48s1.07,7.69,1.76,14.56c.6,6,2,11.41,3.66,22.56,1.4,9.67,2.85,29.39,2.85,29.39,4.05,2.35,9.5.73,9.5.73S277.22,388.21,276.13,379.82Z"/><path class="cls-11" d="M270.82,251.78c-2.91.14-5.09.89-5.45,0a38.94,38.94,0,0,1-.67-4.56c.34-.85.63-1.76.63-1.76,3.66-2.25,4.82-6.21,5.3-10.83.83-7.88-3.43-14.78-11.32-15.6-7.41-.78-12.86,4.43-14.32,11.58-.78,3.54-2.34,10.21-.23,16,1.17,3.24,2.7,5.82,4.21,6.32a34.41,34.41,0,0,0,4.39-.38h0s.39,2.19.66,3.6.16,2.15-2.63,3.87,4.23,5.27,8.82,4.92,9.76-3.12,11.18-6.09C273,255.58,272.83,251.68,270.82,251.78Z"/><path class="cls-16" d="M266.6,252.21c.81,2-1.24,4.48-6.73,6.21s-6-.5-6-.5-8,3.66-10.65,5.49c-3.29,2.3-4.75,8.95-5.19,20.19-.52,13-.56,32.29-.13,35.62,0,0,6.15,6.13,14,5.48s21.1-7.61,24.31-13c-.09-11.4-1.42-13.25.43-19.82,4.22-15,6.45-21.19,4.39-31.18-1.69-8.23-4.06-9.26-7.31-9.18A67.14,67.14,0,0,0,266.6,252.21Z"/><path class="cls-11" d="M244.84,329.23l4-45.27-8.43-4.48-3.3,2.76,1,40.66h0l0,1.11v0l.06,1.43s-.2,3.43,6.26,7.52c0,0,.1-1.07.2-2.08h0l.15-1.69Z"/><path class="cls-12" d="M245.85,260.61c-4.35-.08-7.13,2.23-8.19,8.95S236,281.77,236,281.77a11.72,11.72,0,0,0,7.77,3.84c5.28.59,6.81-2.09,6.81-2.09s.55-7,.84-11.71S251.24,260.72,245.85,260.61Z"/><path class="cls-17" d="M245.24,229.6s-6.81-10.36,7.95-12.47c10.65-1.52,17.49,5.32,18.28,12.74.75,7.09-3.61,14.46-6.77,17.38-1.54.55-4.85.87-9.2-1.11a53.63,53.63,0,0,1-.2-5.81S260.49,229.41,245.24,229.6Z"/></g><ellipse class="cls-10" cx="143.07" cy="477.01" rx="39.81" ry="22.99"/><g id="Men_2"><path class="cls-11" d="M117.1,328.36c-.4,3.49-4.55,18.51-3.66,23.66s15.08,13.76,15.08,13.76l2-8.82-7.86-7.7,2.13-14.59Z"/><path class="cls-12" d="M128.08,313.56a6.2,6.2,0,0,0-7.9,2.38c-2.09,3.46-4.26,15.33-4.45,17.35,0,0,2.92,4,7.32,3.38Z"/><path class="cls-18" d="M144.3,481.09a12.13,12.13,0,0,0,9.18-1.11c2.22.07,14.23-5.08,15.86-.76,1.43,3.78-3.77,7.29-6.55,8-6.07,1.47-10.56,4.49-13,5-1.82.38-4.17.63-5.62-.8C142.45,489.68,142.6,483.35,144.3,481.09Z"/><path class="cls-19" d="M149.8,491.14c2.43-.51,6.92-3.54,13-5,2.33-.56,6.34-3.11,6.75-6.15.54,3.48-4.16,6.57-6.75,7.2-6.07,1.47-10.56,4.49-13,5-1.82.38-4.17.63-5.62-.8a3.5,3.5,0,0,1-.79-1.45A7.26,7.26,0,0,0,149.8,491.14Z"/><path class="cls-18" d="M124.81,472.34a12.16,12.16,0,0,0,9.19-1.11c2.21.07,14.22-5.08,15.86-.76,1.43,3.79-3.77,7.29-6.55,8-6.07,1.47-10.56,4.5-13,5-1.81.38-4.16.63-5.61-.79C123,480.93,123.11,474.6,124.81,472.34Z"/><path class="cls-19" d="M130.31,482.39c2.44-.51,6.93-3.54,13-5,2.33-.56,6.34-3.11,6.74-6.15.54,3.48-4.15,6.57-6.74,7.2-6.07,1.47-10.56,4.5-13,5-1.81.38-4.16.63-5.61-.79a3.64,3.64,0,0,1-.8-1.45A7.29,7.29,0,0,0,130.31,482.39Z"/><path class="cls-6" d="M124.57,439.7a73.29,73.29,0,0,1,2.78-13.16s-.83-11.35-1.24-22.11c-.48-12.22-4.71-23-1.37-32.72l37.69,8.38s-2.28,48.71-2.78,54.6A109.17,109.17,0,0,1,158,448.37c-1.72,9.45-4.52,31.94-4.52,31.94-4,2.32-9.22,1-9.22,1s.29-28.45.55-35.26c.31-8.32.57-7.68.57-7.68l-1.25-20.72-.82-10.31s-1,7.57-1.72,14.32c-.59,5.89-2,11.22-3.6,22.19-1.38,9.51-3.61,28.63-3.61,28.63-4,2.32-9.4.39-9.4.39S123.5,448,124.57,439.7Z"/><path class="cls-11" d="M130.08,313.76c2.87.14,5,.88,5.36,0a35.4,35.4,0,0,0,.66-4.48c-.33-.84-.61-1.73-.61-1.73-3.61-2.22-4.75-6.12-5.22-10.65-.81-7.76,3.38-14.54,11.13-15.35,7.29-.76,12.66,4.36,14.09,11.39.77,3.48,2.3,10,.23,15.75-1.16,3.2-2.66,5.73-4.15,6.23a37.3,37.3,0,0,1-4.31-.38h0s-.39,2.15-.65,3.54-.16,2.11,2.59,3.81-4.16,5.18-8.68,4.83-9.6-3.07-11-6C128,317.5,128.11,313.67,130.08,313.76Z"/><path class="cls-16" d="M134.23,314.19c-.79,2,1.23,4.4,6.62,6.1s5.87-.49,5.87-.49,7.91,3.61,10.48,5.4c3.24,2.26,4.67,8.81,5.11,19.86.5,12.79.55,31.76.12,35,0,0-6,6-13.78,5.39s-20.76-7.48-23.92-12.77c.09-11.21,1.4-13-.42-19.49-4.15-14.79-6.34-20.85-4.32-30.67,1.66-8.1,4-9.11,7.2-9A66.08,66.08,0,0,1,134.23,314.19Z"/><path class="cls-11" d="M174.48,355.63c-6.36,1.6-7.85-2.4-8.68-5.72-2-8-3.11-15.27-4.62-19.83-1.77-5.38-3.63-6.23-6.24-7.28-3.07-1.23-5.71,1.36-4.68,8.2,1.2,8.09,2.79,13.78,5.81,23.35.79,2.5,2.57,6.94,5.22,9.09,3.28,2.65,8.21,2.53,15.68.68,3.18-.8,6.67-2.7,12.7-5.51,1.62-.75,2.87-1.25,6-2.7a21.21,21.21,0,0,0,8-6.21c1.63-2.36,1.84-3.46,1.51-4s-1.16-.53-2,.46a17.33,17.33,0,0,1-4.57,4.23s2-2.07,3.09-3.42a16.83,16.83,0,0,0,2.4-3.92c.58-1.37-.61-3.24-1.51-2.26s-1.32,2-3,3.94a16.65,16.65,0,0,1-2.94,2.81,32.16,32.16,0,0,0,2.71-4.36,7.08,7.08,0,0,0,1-3.94c0-.72-1.06-1.57-2-.21s-1.41,3.13-3.41,5.21c-1.45,1.5-2.68,2.37-2.72,1.95s.88-1.24,1.4-3,0-3.61-1-3.81-.79-.15-1.56,1.49-2,2.85-2.89,5.24a10.83,10.83,0,0,1-2.61,4.5C184,352.28,180.51,354.11,174.48,355.63Z"/><path class="cls-12" d="M152.59,321.7c4.24-.62,7.23,1.29,9.11,7.71s3.18,11.7,3.18,11.7a11.55,11.55,0,0,1-7.1,4.72c-5.08,1.23-6.9-1.19-6.9-1.19s-1.41-6.74-2.29-11.32S147.34,322.48,152.59,321.7Z"/><path class="cls-18" d="M155.24,292s6.7-10.19-7.82-12.26c-10.47-1.5-17.2,5.22-18,12.53-.75,7,3.55,14.21,6.65,17.09,1.51.54,4.77.85,9.05-1.1a51.8,51.8,0,0,0,.2-5.71S140.25,291.76,155.24,292Z"/></g></g></g></svg>