<svg xmlns="http://www.w3.org/2000/svg" id="Layer_1" enable-background="new 0 0 20 20" viewBox="0 0 20 20"><g id="XMLID_350_"><linearGradient id="XMLID_25_" x1="2.657" x2="17.343" y1="11" y2="11" gradientUnits="userSpaceOnUse"><stop offset="0" stop-color="#ff5640"/><stop offset="1" stop-color="#cc3737"/></linearGradient><path id="XMLID_351_" fill="url(#XMLID_25_)" d="M14.1,16c-0.2,0-0.3,0-0.5,0c-1.6-0.1-3.5-0.7-5.4-1.6c-4-2-6.4-5.1-5.4-7    c0.5-1,1.7-1.4,3.5-1.3c1.6,0.1,3.5,0.7,5.4,1.6c4,2,6.4,5.1,5.4,7C16.7,15.5,15.6,16,14.1,16z M5.9,7C4.8,7,4,7.3,3.8,7.8    c-0.6,1.2,1.3,3.8,5,5.6c1.7,0.9,3.5,1.4,5,1.5c1.3,0.1,2.2-0.2,2.5-0.8c0.6-1.2-1.3-3.8-5-5.6c-1.7-0.9-3.5-1.4-5-1.5    C6.1,7,6,7,5.9,7z"/></g><g id="XMLID_139_"><linearGradient id="XMLID_27_" x1="6.25" x2="13.75" y1="11" y2="11" gradientUnits="userSpaceOnUse"><stop offset="0" stop-color="#ffc80b"/><stop offset="1" stop-color="#e89318"/></linearGradient><path id="XMLID_140_" fill="url(#XMLID_27_)" d="M10,19c-2.1,0-3.8-3.5-3.8-8S7.9,3,10,3s3.8,3.5,3.8,8S12.1,19,10,19z M10,4    c-1.3,0-2.8,2.9-2.8,7s1.4,7,2.8,7s2.8-2.9,2.8-7S11.3,4,10,4z"/></g><g id="XMLID_135_"><linearGradient id="XMLID_28_" x1="2.657" x2="17.343" y1="11" y2="11" gradientUnits="userSpaceOnUse"><stop offset="0" stop-color="#708afb"/><stop offset="1" stop-color="#426de8"/></linearGradient><path id="XMLID_136_" fill="url(#XMLID_28_)" d="M5.9,16c-1.5,0-2.6-0.5-3-1.3c-1-1.9,1.4-4.9,5.4-7c1.8-0.9,3.7-1.5,5.4-1.6    c1.8-0.1,3,0.4,3.5,1.3c1,1.9-1.4,4.9-5.4,7c-1.8,0.9-3.7,1.5-5.4,1.6C6.2,16,6,16,5.9,16z M14.1,7c-0.1,0-0.3,0-0.4,0    c-1.5,0.1-3.2,0.6-5,1.5c-3.7,1.9-5.6,4.5-5,5.6C4,14.7,5,15,6.3,14.9c1.5-0.1,3.2-0.6,5-1.5c3.7-1.9,5.6-4.5,5-5.6    C16,7.3,15.2,7,14.1,7z"/></g><g id="XMLID_133_"><linearGradient id="XMLID_30_" x1="9" x2="11" y1="11" y2="11" gradientUnits="userSpaceOnUse"><stop offset="0" stop-color="#708afb"/><stop offset="1" stop-color="#426de8"/></linearGradient><circle id="XMLID_134_" cx="10" cy="11" r="1" fill="url(#XMLID_30_)"/></g></svg>