<svg xmlns="http://www.w3.org/2000/svg" data-name="Layer 1" viewBox="0 0 512 512"><polygon fill="#ffc63d" points="204.71 17.42 183.41 4.97 187.12 22.95 204.71 17.42"/><polygon fill="#ffc63d" points="74.01 192.71 95.31 205.16 91.6 187.19 74.01 192.71"/><path fill="#ffc63d" d="M129.15,10.57c-42.6,24.59-77,84.19-76.85,133.14S87,212.39,129.65,187.8s77-84.19,76.85-133.12S171.72-14,129.15,10.57"/><path fill="#f8d850" d="M146.78,115.9c-2,1.15-4,2.36-6,3.52L140.58,144c1.73-1,3.29-1.82,4.85-2.72,5.66-3.34,11.25-6.57,16.58-12.4,3.52-3.83,5.65-8,5.72-12.64s-2.07-6.57-5.62-6.31c-4.94.33-10.09,2.95-15.33,6m-.81-33c-1.67,1-3.36,2-5.06,3,0,7.69-.11,14.91-.17,22.12,1.69-.89,3.37-1.79,5-2.75a58.33,58.33,0,0,0,11.38-8.33,18.65,18.65,0,0,0,6.21-12.48c.22-4.18-1.58-6.53-5.19-6.24-3.89.2-8,2.28-12.2,4.71m12.19-38.05c0,5.84,0,13.15,0,18.43,2.63-1,5.17-2,7.71-2.83a18.27,18.27,0,0,1,9.94-.65c7.49,1.92,8.44,19.61-1.79,31.56-.17.2-.34.47-.58.8a37.74,37.74,0,0,1,6.07-.39c4.11.36,6.43,3.17,7.1,8.19a41.17,41.17,0,0,1-14.29,36.49c-4.44,3.79-9.11,7-13.7,10.47-.23.21-.49.36-.81.64-.07,5.52-.05,12.51-.12,18.5l-9.61,5.55c0-5.77,0-12.69,0-18.35-2.54,1.37-5,2.69-7.71,4.18-.07,5.59,0,12.59-.12,18.57l-9.61,5.55c0-5.94,0-13.15,0-18.82-6.56,3.69-13,7.29-19.45,11,.65-4.82,1.3-9.45,1.95-14.27l6.38-3.69c3-1.71,4.27-3.79,4.26-7.27,0-15.8.17-31.73.27-47.56,0-3.78-1.73-5-5.1-3.3-1.15.57-2.37,1.27-3.61,2s-2.37,1.27-3.78,2.08c0-4,.06-7.78.05-11.83,6.58-3.7,12.9-7.35,19.45-11,.07-5.25.05-12.51.12-18.4l9.52-5.5c0,5.74,0,12.88,0,18.06l7.71-4.45c.07-5.23.05-12.32.12-18.11l9.61-5.55M148.72,22c-42.58,24.58-77,84.17-76.85,133.12s34.78,68.67,77.36,44.08,77-84.2,76.88-133.13S191.32-2.57,148.72,22"/><path fill="#fff" d="M145.43,141.28c-1.56.9-3.12,1.73-4.85,2.72l.19-24.59c2-1.16,4-2.37,6-3.52,5.24-3,10.39-5.65,15.33-6,3.55-.26,5.61,1.68,5.62,6.31s-2.2,8.81-5.72,12.64c-5.33,5.83-10.93,9.06-16.58,12.4m.34-36c-1.66,1-3.34,1.86-5,2.75.07-7.21.13-14.43.17-22.12,1.7-1,3.39-2,5.06-3,4.21-2.43,8.31-4.51,12.2-4.71,3.61-.29,5.42,2.06,5.19,6.24a18.65,18.65,0,0,1-6.21,12.48,58.33,58.33,0,0,1-11.38,8.33m12.39-60.39-9.61,5.55c-.07,5.79,0,12.88-.12,18.11L140.72,73c0-5.18.05-12.32,0-18.06l-9.52,5.5c-.07,5.89,0,13.15-.12,18.4-6.56,3.69-12.88,7.34-19.45,11,0,4-.06,7.88-.05,11.83,1.41-.81,2.63-1.52,3.78-2.08s2.46-1.42,3.61-2c3.37-1.65,5.09-.48,5.1,3.3-.1,15.84-.23,31.76-.27,47.56,0,3.48-1.29,5.56-4.26,7.27l-6.38,3.69c-.65,4.82-1.3,9.45-1.95,14.27,6.49-3.67,12.9-7.27,19.45-11,0,5.67,0,12.88,0,18.82l9.61-5.55c.07-6,0-13,.12-18.57,2.71-1.49,5.17-2.81,7.71-4.18,0,5.67,0,12.59,0,18.35l9.61-5.55c.07-6,0-13,.12-18.5.32-.28.58-.43.81-.64,4.59-3.51,9.26-6.68,13.7-10.47A41.17,41.17,0,0,0,186.59,100c-.68-5-3-7.83-7.1-8.19a37.74,37.74,0,0,0-6.07.39c.23-.33.4-.6.58-.8,10.23-12,9.28-29.64,1.79-31.56a18.27,18.27,0,0,0-9.94.65c-2.54.8-5.09,1.81-7.71,2.83,0-5.28,0-12.59,0-18.43"/><polygon fill="#ffa52e" points="125.49 414.38 125.49 364.91 152.9 392.84 125.49 414.38"/><polygon fill="#ffa52e" points="459.29 417.12 459.29 367.65 431.88 395.58 459.29 417.12"/><path fill="#ffa52e" d="M410.34,346.65c-65.51-37.82-171.38-37.82-236.46,0s-64.76,99.16.75,137,171.4,37.83,236.5,0,64.72-99.16-.79-137"/><polygon fill="#ffb53e" points="125.27 369.06 125.27 319.59 152.68 347.52 125.27 369.06"/><polygon fill="#ffb53e" points="459.07 371.79 459.07 322.32 431.66 350.25 459.07 371.79"/><path fill="#ffb53e" d="M410.11,301.32c-65.51-37.82-171.38-37.82-236.46,0s-64.76,99.16.75,137,171.4,37.83,236.5,0,64.72-99.16-.79-137"/><polygon fill="#ffc63d" points="125.27 326.42 125.27 276.95 152.68 304.88 125.27 326.42"/><polygon fill="#ffc63d" points="459.07 329.15 459.07 279.68 431.66 307.61 459.07 329.15"/><path fill="#ffc63d" d="M410.11,258.68c-65.51-37.82-171.38-37.82-236.46,0s-64.76,99.16.75,137,171.4,37.83,236.5,0,64.72-99.16-.79-137"/><path fill="#f8d850" d="M283.57,283.76c-3.09-1.78-6.26-3.53-9.37-5.33l-32.86,18.65c2.65,1.53,4.93,3,7.32,4.38,8.84,5,17.42,9.91,29.27,12.55,7.8,1.75,15,1.38,21.27-2.12s7.11-7.79,4.08-12.32c-4.22-6.33-11.67-11.17-19.71-15.81m43.25-26.48c-2.56-1.48-5.21-2.94-7.82-4.45L289.39,269.6c2.52,1.59,5,3.14,7.61,4.63a88.84,88.84,0,0,0,19.77,8.72c7.82,2.33,15.23,1.81,21.38-1.32,5.77-2.91,7.52-7.14,4.36-11.74-3.29-5-9.21-8.88-15.69-12.62m83.29-43.17c-65.51-37.82-171.38-37.82-236.46,0s-64.76,99.16.75,137,171.4,37.83,236.5,0,64.72-99.16-.79-137"/><path fill="#fff" d="M253.39,298.1c-2.06-1.19-4-2.46-6.32-3.77l28.34-16.09c2.69,1.55,5.42,3.06,8.08,4.6,6.94,4,13.36,8.18,17,13.64,2.61,3.9,1.77,7.55-3.52,10.62s-11.62,3.34-18.35,1.83c-10.22-2.28-17.62-6.55-25.25-10.82m41.69-23.48c-2.23-1.29-4.39-2.63-6.56-4l25.54-14.46c2.25,1.3,4.53,2.56,6.74,3.83,5.59,3.23,10.69,6.55,13.53,10.88,2.72,4,1.22,7.61-3.76,10.12-5.31,2.7-11.69,3.15-18.44,1.14a76.62,76.62,0,0,1-17.05-7.52m77.55-25.87-12.74-7.36c-6.72,3.77-14.82,8.48-20.88,11.88l-10.24-5.91c5.95-3.46,14.16-8.1,20.77-11.94l-12.63-7.29c-6.81,3.83-15.15,8.68-21.21,12.07-8.6-5.09-17-9.93-25.58-15-4.67,2.71-9.09,5.16-13.63,7.79,1.84,1.06,3.48,2,4.9,3,1.62.94,3.26,1.88,4.68,2.83,4.13,2.76,3.94,5.54-.39,8.06C267.38,257.17,249,267.62,230.81,278c-4,2.33-7.27,2.2-11.2-.06l-8.49-4.9c-6,2.46-11.68,4.78-17.65,7.23L219,295.4c-6.5,3.77-14.84,8.5-21.64,12.45l12.74,7.36C217,311.31,225,306.66,231.5,303l9.89,6.09c-6.5,3.77-14.47,8.3-21.08,12.14L233,328.59C240,324.7,248,320,254.35,316.46c.55.19.88.38,1.31.5,7.07,3,13.84,6.23,21.1,8.81a54.74,54.74,0,0,0,51.43-7.8c5.28-4.09,7-8.61,4.68-13.58a55.27,55.27,0,0,0-4.46-6.73c.51.06,1,.06,1.29.13,20.54,3.83,40.22-9,37.45-18.86-1.11-4-3.73-7.67-7.33-11-2.62-2.4-5.46-4.66-8.39-7,6.06-3.52,14.51-8.3,21.21-12.2"/></svg>