<svg xmlns="http://www.w3.org/2000/svg" data-name="Layer 1" viewBox="0 0 512 512"><polygon fill="#94b0ff" points="129.31 219.43 129.31 73.14 256 146.28 256 292.57 129.31 219.43"/><polyline fill="#557beb" points="129.31 73.14 256 0 382.69 73.14 256 146.28"/><polyline fill="#e9eefc" points="256 146.28 382.69 73.14 382.69 219.43 256 292.57"/><polygon fill="#94b0ff" points="2.62 438.86 2.62 292.57 129.31 365.71 129.31 512 2.62 438.86"/><polyline fill="#557beb" points="2.62 292.57 129.31 219.43 256 292.57 129.31 365.71"/><polyline fill="#e9eefc" points="129.31 365.71 256 292.57 256 438.86 129.31 512"/><polygon fill="#94b0ff" points="256 438.86 256 292.57 382.69 365.71 382.69 512 256 438.86"/><polyline fill="#557beb" points="256 292.57 382.69 219.43 509.38 292.57 382.69 365.71"/><polyline fill="#e9eefc" points="382.69 365.71 509.38 292.57 509.38 438.86 382.69 512"/></svg>