<svg xmlns="http://www.w3.org/2000/svg" data-name="Layer 1" viewBox="0 0 32 32"><path fill="#56bc8d" d="M31.5,21A9.486,9.486,0,0,1,16,28.35,9.421,9.421,0,0,0,19.5,21a8.514,8.514,0,0,0-.07-1.14,9.494,9.494,0,0,0,6-7.72A9.495,9.495,0,0,1,31.5,21Z"/><path fill="#c6e5d6" d="M19.5,21A9.421,9.421,0,0,1,16,28.35,9.42,9.42,0,0,1,12.5,21a8.5,8.5,0,0,1,.07-1.14,9.512,9.512,0,0,0,6.86,0A8.514,8.514,0,0,1,19.5,21Z"/><path fill="#4880bd" d="M16,28.35A9.495,9.495,0,1,1,6.57,12.14a9.494,9.494,0,0,0,6,7.72A8.5,8.5,0,0,0,12.5,21,9.42,9.42,0,0,0,16,28.35Z"/><path fill="#b7d9f4" d="M16,13.64a9.441,9.441,0,0,0-3.43,6.22,9.494,9.494,0,0,1-6-7.72A9.545,9.545,0,0,1,10,11.5,9.431,9.431,0,0,1,16,13.64Z"/><path fill="#fbea9a" d="M19.43,19.86a9.512,9.512,0,0,1-6.86,0A9.441,9.441,0,0,1,16,13.64,9.441,9.441,0,0,1,19.43,19.86Z"/><path fill="#f2a6b5" d="M25.43,12.14a9.494,9.494,0,0,1-6,7.72A9.441,9.441,0,0,0,16,13.64a9.431,9.431,0,0,1,6-2.14A9.545,9.545,0,0,1,25.43,12.14Z"/><path fill="#ec4369" d="M25.5,11a8.515,8.515,0,0,1-.07,1.14A9.545,9.545,0,0,0,22,11.5a9.431,9.431,0,0,0-6,2.14,9.431,9.431,0,0,0-6-2.14,9.545,9.545,0,0,0-3.43.64A8.5,8.5,0,0,1,6.5,11a9.5,9.5,0,0,1,19,0Z"/></svg>